# xmcd
#
# Track frame offsets:
#	150
#	11262
#	24050
#	39287
#	55980
#	66650
#	82795
#	97975
#	112050
#	124070
#
# Disc length: 1792
#
# Revision: 3
# Processed by: cddbd v1.5.1PL0 Copyright (c) Steve Scherf et al.
# Submitted via: ExactAudioCopy v0.90b3
# Normalized: r2:DSETVAR1
#
DISCID=7106fe0a
DTITLE=Various Artist - Truckers Jukebox #3
DYEAR=1900
DGENRE=Country
TTITLE0=Conway Twitty - Hello Darlin'
TTITLE1=Patsy Cline - I Fall To Pieces
TTITLE2=John Anderson - Somewhere Between Ragged And Right
TTITLE3=Oak Ridge Boys - Elvira
TTITLE4=Asleep At The Wheel - Cotton-Eyed Joe
TTITLE5=Bellamy Brothers - Crazy From The Heart
TTITLE6=Lorrie Morgan - Don't Go Changing
TTITLE7=Mark Chesnutt - Bubba Shot The Jukebox
TTITLE8=Gene Watson - Fourteen Carat Mind
TTITLE9=Barbara Mandrell - Sleeping Single In A Double Bed
EXTD=
EXTT0=Conway Twitty\n
EXTT1=Patsy Cline\n
EXTT2=John Anderson\n
EXTT3=Oak Ridge Boys\n
EXTT4=Asleep At The Wheel\n
EXTT5=The Bellamy Brothers\n
EXTT6=Lorrie Morgan\n
EXTT7=Mark Chesnutt\n
EXTT8=Gene Watson\n
EXTT9=Barbra Mandrell\n
PLAYORDER=
